<?xml version="1.0" standalone="no"?>
<!DOCTYPE svg PUBLIC "-//W3C//DTD SVG 20010904//EN"
 "http://www.w3.org/TR/2001/REC-SVG-20010904/DTD/svg10.dtd">
<svg version="1.0" xmlns="http://www.w3.org/2000/svg"
 width="400.000000pt" height="274.000000pt" viewBox="0 0 400.000000 274.000000"
 preserveAspectRatio="xMidYMid meet">

<g transform="translate(0.000000,274.000000) scale(0.100000,-0.100000)"
fill="#000000" stroke="none">
<path d="M1574 2413 c-21 -38 -90 -160 -155 -273 -64 -113 -246 -432 -404
-710 -158 -278 -302 -531 -321 -562 l-33 -58 304 0 303 0 149 265 c81 146 151
265 155 265 4 0 9 -92 10 -204 l3 -205 94 167 c138 245 186 329 410 723 l111
196 0 232 0 231 -295 0 -294 0 -37 -67z"/>
<path d="M2380 2223 c-80 -141 -168 -297 -196 -347 -75 -134 -377 -664 -447
-786 -33 -58 -69 -121 -79 -140 -11 -19 -33 -59 -50 -87 l-29 -53 143 0 143 0
84 148 c47 81 133 233 191 337 59 105 175 312 260 460 155 273 399 704 407
718 2 4 -60 7 -139 7 l-143 0 -145 -257z"/>
<path d="M2825 2408 c-22 -40 -49 -88 -60 -107 -11 -20 -56 -99 -100 -176 -43
-77 -151 -268 -240 -425 -89 -157 -233 -411 -320 -565 -87 -154 -165 -290
-173 -302 l-14 -23 144 0 145 0 73 133 c41 72 84 148 96 167 12 19 53 91 91
160 124 221 334 593 373 660 47 81 283 497 299 528 l12 22 -143 0 -143 0 -40
-72z"/>
<path d="M3065 2228 c-44 -78 -97 -174 -119 -212 -21 -39 -73 -129 -114 -201
-41 -71 -86 -150 -100 -175 -14 -25 -47 -83 -74 -129 l-48 -84 2 -247 3 -247
267 467 267 467 3 251 c2 139 1 252 -2 252 -3 0 -41 -64 -85 -142z"/>
<path d="M2991 1485 c-91 -160 -213 -375 -273 -479 -59 -104 -108 -193 -108
-199 0 -5 7 -6 16 -3 9 3 73 6 142 6 l127 0 34 63 c18 34 48 87 66 117 18 30
63 106 99 169 l66 113 -2 251 -3 252 -164 -290z"/>
<path d="M3122 1108 c-16 -29 -44 -80 -62 -113 -18 -33 -48 -85 -66 -116 -19
-31 -34 -59 -34 -63 0 -3 45 -6 100 -6 l101 0 -2 175 c-1 96 -3 175 -4 175 -2
0 -17 -24 -33 -52z"/>
<path d="M1895 613 c-78 -20 -120 -148 -77 -232 26 -52 61 -73 121 -73 91 0
134 51 135 158 0 67 -16 102 -59 130 -26 17 -87 26 -120 17z m94 -62 c20 -15
25 -30 29 -77 5 -78 -20 -114 -78 -114 -58 0 -80 28 -80 102 0 49 4 63 25 83
29 30 70 32 104 6z"/>
<path d="M670 460 l0 -150 25 0 25 0 1 113 c1 124 3 124 33 -13 20 -89 23 -95
48 -98 30 -4 28 -8 65 153 l18 80 3 -117 3 -118 24 0 25 0 0 151 0 150 -42 -3
-42 -3 -24 -98 c-14 -54 -26 -96 -29 -93 -2 2 -11 30 -19 63 -38 146 -30 133
-74 133 l-40 0 0 -150z"/>
<path d="M1000 460 l0 -150 110 0 110 0 0 25 c0 25 -1 25 -80 25 l-80 0 0 45
0 45 70 0 c63 0 70 2 70 20 0 18 -7 20 -70 20 l-70 0 0 38 0 38 77 -1 c72 0
76 1 78 23 2 22 0 22 -107 22 l-108 0 0 -150z"/>
<path d="M1252 588 c3 -20 9 -23 43 -23 l40 0 3 -127 3 -128 24 0 24 0 3 128
3 127 40 0 c34 0 40 3 43 23 3 22 2 22 -113 22 -115 0 -116 0 -113 -22z"/>
<path d="M1520 460 l0 -150 25 0 c24 0 25 2 25 65 0 62 1 65 24 65 29 0 42
-12 85 -79 27 -42 38 -51 62 -51 16 0 29 3 29 8 0 10 -47 81 -73 110 -18 19
-18 22 -4 22 53 0 78 99 35 140 -19 17 -35 20 -115 20 l-93 0 0 -150z m163 94
c9 -3 17 -13 17 -22 0 -35 -18 -46 -72 -47 -51 0 -53 1 -56 28 -6 50 3 60 51
52 23 -3 50 -9 60 -11z"/>
<path d="M2130 460 l0 -150 70 0 c120 0 160 39 160 155 0 109 -38 145 -152
145 l-78 0 0 -150z m161 79 c26 -41 22 -135 -7 -164 -9 -9 -33 -15 -60 -15
l-44 0 0 98 c0 54 2 101 5 104 10 10 97 -9 106 -23z"/>
<path d="M2495 598 c-7 -22 -93 -252 -100 -270 -6 -15 -2 -18 22 -18 25 0 32
5 39 33 9 31 11 32 71 35 l61 3 12 -36 c10 -30 16 -35 42 -35 25 0 29 3 23 18
-9 21 -94 252 -100 270 -2 6 -18 12 -35 12 -17 0 -33 -6 -35 -12z m49 -90 c32
-77 32 -78 -14 -78 -32 0 -41 3 -37 14 3 8 11 32 18 55 7 23 14 41 16 41 2 0
10 -15 17 -32z"/>
<path d="M2660 585 c0 -23 3 -25 41 -23 l41 3 -2 -127 -1 -128 30 0 31 0 0
130 0 131 40 -5 c37 -5 40 -3 40 20 0 24 0 24 -110 24 l-110 0 0 -25z"/>
<path d="M2928 476 c-26 -73 -50 -141 -54 -150 -5 -13 0 -16 23 -16 25 0 32 5
39 33 9 31 11 32 70 35 l60 3 12 -36 c11 -30 18 -35 44 -35 25 0 29 3 23 18
-18 45 -105 276 -105 279 0 2 -15 3 -33 3 l-32 0 -47 -134z m105 2 l16 -48
-44 0 -43 0 21 55 c12 30 25 51 28 47 4 -4 13 -28 22 -54z"/>
</g>
</svg>
